<svg width="152" height="51" viewBox="0 0 152 51" fill="none" xmlns="http://www.w3.org/2000/svg">
<path d="M25.4175 1.37842C12.1504 1.37842 1.35596 12.1404 1.35596 25.3675C1.35596 38.5946 12.1504 49.3566 25.4175 49.3566C38.6846 49.3566 49.4791 38.5946 49.4791 25.3675C49.5057 12.1404 38.7112 1.37842 25.4175 1.37842ZM33.2874 5.80513V7.71366V7.81969C33.2874 7.81969 33.314 8.03174 33.2874 8.37634H17.5477C17.5477 8.03174 17.5477 7.81969 17.5477 7.81969V5.83164C19.9937 4.85087 22.6259 4.32073 25.4175 4.32073C28.2092 4.29422 30.8679 4.82436 33.2874 5.80513ZM32.862 11.3717C32.7291 11.9018 32.5961 12.4054 32.41 12.9091C32.2239 13.4392 32.0112 14.0224 31.7719 14.579H19.0897C18.6377 13.5188 18.2655 12.432 17.9997 11.3717H32.862ZM4.28057 25.3675C4.28057 17.6539 8.45478 10.921 14.6496 7.23653V7.66064C14.5965 8.48237 14.3572 15.4803 21.3231 23.1939L21.5358 23.406L21.7485 23.1939C22.0675 22.9023 22.36 22.6373 22.6259 22.3987C22.8917 22.1601 23.1576 21.9216 23.4235 21.683L23.6096 21.4974L23.4501 21.3119C22.3068 20.013 21.2965 18.6612 20.4723 17.2828H30.3362C28.8473 19.748 26.8532 22.0806 24.4072 24.2012C14.304 33.0016 14.5433 41.7755 14.6231 42.7828V43.472C8.4282 39.814 4.28057 33.0811 4.28057 25.3675ZM19.0631 35.9174H31.7719C32.2239 36.9777 32.5961 38.0645 32.862 39.1248H17.9731C18.2389 38.0645 18.5846 36.9777 19.0631 35.9174ZM17.5477 44.9564V42.7828V42.6768C17.5477 42.6768 17.5211 42.4647 17.5477 42.1201H33.2874C33.2874 42.4647 33.2874 42.6768 33.2874 42.6768V44.9299C30.8414 45.9106 28.2092 46.4408 25.4175 46.4408C22.6524 46.4673 19.9937 45.9106 17.5477 44.9564ZM36.212 43.4985V42.8093C36.2652 41.9876 36.5045 34.9896 29.512 27.276L29.2993 27.064L29.0866 27.276C28.7675 27.5676 28.4751 27.8327 28.2092 28.0712C27.9433 28.2833 27.6775 28.5219 27.4116 28.7869L27.2255 28.9725L27.385 29.158C28.5282 30.4569 29.5386 31.8088 30.3628 33.1871H20.4723C21.9612 30.722 23.9552 28.3893 26.4013 26.2688C36.5045 17.4683 36.2652 8.69443 36.1854 7.68715V7.26303C42.3803 10.9475 46.5545 17.6804 46.5545 25.394C46.5811 33.0811 42.4069 39.814 36.212 43.4985Z" fill="#4ABED4"/>
<path d="M71.1212 8.05811V40.1584H65.724V37.7993C65.3518 39.3897 64.1287 40.1584 62.2942 40.1584H60.8053C57.3756 40.1584 55.8867 38.4354 55.8867 35.4136V21.2852C55.8867 18.2634 57.3756 16.5404 60.8053 16.5404H62.2942C63.9692 16.5404 65.1391 17.2031 65.6176 18.555V8.05811H71.1212ZM64.1287 35.9173C65.1922 35.9173 65.6176 35.4931 65.6176 34.3268V22.3985C65.6176 21.2057 65.1922 20.7551 64.1287 20.7551H62.693C61.6295 20.7551 61.3371 21.0467 61.3371 22.0539V34.6184C61.3371 35.6257 61.6295 35.9173 62.693 35.9173H64.1287Z" fill="#4ABED4"/>
<path d="M72.6633 23.936H84.3617V27.9121H72.6633V23.936Z" fill="#4ABED4"/>
<path d="M85.9304 40.1584V8.05811H91.3808V40.1584H85.9304Z" fill="#4ABED4"/>
<path d="M105.871 16.5933C109.54 16.5933 110.976 18.3162 110.976 21.3381V35.3869C110.976 38.4088 109.54 40.1317 105.871 40.1317H100.421C96.7249 40.1317 95.2626 38.4088 95.2626 35.3869V21.3381C95.2626 18.3162 96.6983 16.5933 100.421 16.5933H105.871ZM105.632 21.9742C105.632 20.967 105.286 20.6754 104.249 20.6754H102.042C100.979 20.6754 100.66 20.967 100.66 21.9742V34.7773C100.66 35.7845 101.005 36.0761 102.042 36.0761H104.249C105.313 36.0761 105.632 35.7845 105.632 34.7773V21.9742Z" fill="#4ABED4"/>
<path d="M125.2 16.5933C128.869 16.5933 130.305 18.3162 130.305 21.3381V35.3869C130.305 38.4088 128.869 40.1317 125.2 40.1317H119.75C116.054 40.1317 114.592 38.4088 114.592 35.3869V21.3381C114.592 18.3162 116.027 16.5933 119.75 16.5933H125.2ZM124.961 21.9742C124.961 20.967 124.615 20.6754 123.578 20.6754H121.371C120.308 20.6754 119.989 20.967 119.989 21.9742V34.7773C119.989 35.7845 120.334 36.0761 121.371 36.0761H123.578C124.642 36.0761 124.961 35.7845 124.961 34.7773V21.9742Z" fill="#4ABED4"/>
<path d="M144.449 16.5933C147.906 16.5933 149.394 18.3162 149.394 21.3381V35.3869C149.394 38.4088 147.906 40.1317 144.449 40.1317H143.013C141.285 40.1317 140.115 39.469 139.637 38.1172V46.6525H134.186V16.5933H139.584V18.7404C140.009 17.309 141.232 16.5933 143.013 16.5933H144.449ZM143.917 22.1068C143.917 21.0995 143.625 20.8079 142.561 20.8079H141.126C140.115 20.8079 139.637 21.232 139.637 22.3984V34.3531C139.637 35.493 140.115 35.9436 141.126 35.9436H142.561C143.625 35.9436 143.917 35.652 143.917 34.6447V22.1068Z" fill="#4ABED4"/>
</svg>
